<?xml version="1.0" encoding="UTF-8"?><svg width="750px" height="471px" viewBox="0 0 750 471" version="1.1" xmlns="http://www.w3.org/2000/svg" xmlns:xlink="http://www.w3.org/1999/xlink"><g id="assets" stroke="none" stroke-width="1" fill="none" fill-rule="evenodd"><g id="visa" fill-rule="nonzero"><rect id="Rectangle-path" fill="#0E4595" x="0" y="0" width="750" height="471" rx="40"></rect><path d="M278.197,334.228 L311.558,138.465 L364.918,138.465 L331.533,334.228 L278.197,334.228 Z M524.308,142.688 C513.736,138.722 497.171,134.466 476.485,134.466 C423.76,134.466 386.62,161.016 386.305,199.069 C386.007,227.199 412.818,242.891 433.058,252.255 C453.828,261.849 460.81,267.969 460.712,276.538 C460.58,289.659 444.125,295.654 428.789,295.654 C407.432,295.654 396.086,292.688 378.563,285.378 L371.687,282.267 L364.197,326.091 C376.661,331.555 399.707,336.289 423.635,336.534 C479.725,336.534 516.136,310.288 516.551,269.652 C516.751,247.384 502.535,230.436 471.751,216.464 C453.101,207.409 441.679,201.365 441.8,192.196 C441.8,184.059 451.467,175.357 472.356,175.357 C489.806,175.087 502.445,178.892 512.293,182.857 L517.074,185.117 L524.308,142.687 L524.308,142.688 Z M661.615,138.465 L620.384,138.465 C607.61,138.465 598.052,141.952 592.442,154.699 L513.197,334.103 L569.229,334.103 C569.229,334.103 578.39,309.98 580.462,304.685 C586.586,304.685 641.016,304.769 648.799,304.769 C650.395,311.622 655.29,334.103 655.29,334.103 L704.803,334.103 L661.615,138.465 Z M596.197,264.872 C600.61,253.593 617.457,210.149 617.457,210.149 C617.141,210.671 621.837,198.815 624.532,191.465 L628.138,208.344 C628.138,208.344 638.355,255.072 640.49,264.872 L596.197,264.872 Z M232.903,138.465 L180.663,271.961 L175.096,244.831 C165.371,213.558 135.071,179.676 101.198,162.713 L148.964,333.916 L205.42,333.851 L289.424,138.465 L232.903,138.465 Z" id="Shape" fill="#FFFFFF"></path><path d="M131.92,138.465 L45.879,138.465 L45.198,142.538 C112.136,158.742 156.429,197.901 174.816,244.952 L156.106,154.992 C152.876,142.597 143.509,138.898 131.92,138.466" id="Shape" fill="#F2AE14"></path></g></g></svg>